<mxfile host="drawio-plugin" modified="2022-05-11T05:41:32.822Z" agent="5.0 (X11; Linux x86_64) AppleWebKit/537.36 (KHTML, like Gecko) Chrome/97.0.4692.45 Safari/537.36" etag="_KD657FLEcJzPP-i0Qz6" version="15.5.4" type="embed" pages="2"><diagram id="C5RBs43oDa-KdzZeNtuy" name="Page-1"><mxGraphModel dx="1631" dy="1634" grid="1" gridSize="10" guides="1" tooltips="1" connect="1" arrows="1" fold="1" page="1" pageScale="1" pageWidth="827" pageHeight="1169" math="0" shadow="0"><root><mxCell id="WIyWlLk6GJQsqaUBKTNV-0"/><mxCell id="WIyWlLk6GJQsqaUBKTNV-1" parent="WIyWlLk6GJQsqaUBKTNV-0"/><object label="DevelopmentCompany +" id="zkfFHV4jXpPFQw0GAbJ--0"><mxCell style="swimlane;fontStyle=2;align=center;verticalAlign=top;childLayout=stackLayout;horizontal=1;startSize=26;horizontalStack=0;resizeParent=1;resizeLast=0;collapsible=1;marginBottom=0;rounded=0;shadow=0;strokeWidth=1;" parent="WIyWlLk6GJQsqaUBKTNV-1" vertex="1"><mxGeometry x="240" y="-170" width="240" height="260" as="geometry"><mxRectangle x="50" y="280" width="160" height="26" as="alternateBounds"/></mxGeometry></mxCell></object><mxCell id="zkfFHV4jXpPFQw0GAbJ--2" value="ID:unique" style="text;align=left;verticalAlign=top;spacingLeft=4;spacingRight=4;overflow=hidden;rotatable=0;points=[[0,0.5],[1,0.5]];portConstraint=eastwest;rounded=0;shadow=0;html=0;" parent="zkfFHV4jXpPFQw0GAbJ--0" vertex="1"><mxGeometry y="26" width="240" height="26" as="geometry"/></mxCell><mxCell id="NU3LqY0kfDEqKCWppmfM-1" style="edgeStyle=orthogonalEdgeStyle;rounded=0;orthogonalLoop=1;jettySize=auto;html=1;exitX=1;exitY=0.5;exitDx=0;exitDy=0;entryX=1;entryY=0.5;entryDx=0;entryDy=0;fontFamily=Helvetica;fontSize=12;fontColor=default;" parent="zkfFHV4jXpPFQw0GAbJ--0" source="zkfFHV4jXpPFQw0GAbJ--1" target="zkfFHV4jXpPFQw0GAbJ--2" edge="1"><mxGeometry relative="1" as="geometry"/></mxCell><mxCell id="zkfFHV4jXpPFQw0GAbJ--1" value="name:string,unique" style="text;align=left;verticalAlign=top;spacingLeft=4;spacingRight=4;overflow=hidden;rotatable=0;points=[[0,0.5],[1,0.5]];portConstraint=eastwest;" parent="zkfFHV4jXpPFQw0GAbJ--0" vertex="1"><mxGeometry y="52" width="240" height="26" as="geometry"/></mxCell><mxCell id="NU3LqY0kfDEqKCWppmfM-3" value="adress:string" style="text;align=left;verticalAlign=top;spacingLeft=4;spacingRight=4;overflow=hidden;rotatable=0;points=[[0,0.5],[1,0.5]];portConstraint=eastwest;" parent="zkfFHV4jXpPFQw0GAbJ--0" vertex="1"><mxGeometry y="78" width="240" height="26" as="geometry"/></mxCell><mxCell id="NU3LqY0kfDEqKCWppmfM-4" value="identificationCode:string" style="text;align=left;verticalAlign=top;spacingLeft=4;spacingRight=4;overflow=hidden;rotatable=0;points=[[0,0.5],[1,0.5]];portConstraint=eastwest;" parent="zkfFHV4jXpPFQw0GAbJ--0" vertex="1"><mxGeometry y="104" width="240" height="26" as="geometry"/></mxCell><mxCell id="NU3LqY0kfDEqKCWppmfM-7" value="phoneNumber:string" style="text;align=left;verticalAlign=top;spacingLeft=4;spacingRight=4;overflow=hidden;rotatable=0;points=[[0,0.5],[1,0.5]];portConstraint=eastwest;" parent="zkfFHV4jXpPFQw0GAbJ--0" vertex="1"><mxGeometry y="130" width="240" height="26" as="geometry"/></mxCell><mxCell id="NU3LqY0kfDEqKCWppmfM-6" value="dataOfEstablishment:Date" style="text;align=left;verticalAlign=top;spacingLeft=4;spacingRight=4;overflow=hidden;rotatable=0;points=[[0,0.5],[1,0.5]];portConstraint=eastwest;" parent="zkfFHV4jXpPFQw0GAbJ--0" vertex="1"><mxGeometry y="156" width="240" height="26" as="geometry"/></mxCell><mxCell id="NU3LqY0kfDEqKCWppmfM-2" value="rating:number" style="text;align=left;verticalAlign=top;spacingLeft=4;spacingRight=4;overflow=hidden;rotatable=0;points=[[0,0.5],[1,0.5]];portConstraint=eastwest;" parent="zkfFHV4jXpPFQw0GAbJ--0" vertex="1"><mxGeometry y="182" width="240" height="26" as="geometry"/></mxCell><mxCell id="PWABPKc5PPacHre3TSY6-2" value="email:string" style="text;align=left;verticalAlign=top;spacingLeft=4;spacingRight=4;overflow=hidden;rotatable=0;points=[[0,0.5],[1,0.5]];portConstraint=eastwest;" parent="zkfFHV4jXpPFQw0GAbJ--0" vertex="1"><mxGeometry y="208" width="240" height="26" as="geometry"/></mxCell><mxCell id="PWABPKc5PPacHre3TSY6-17" value="userID:User.id" style="text;align=left;verticalAlign=top;spacingLeft=4;spacingRight=4;overflow=hidden;rotatable=0;points=[[0,0.5],[1,0.5]];portConstraint=eastwest;" parent="zkfFHV4jXpPFQw0GAbJ--0" vertex="1"><mxGeometry y="234" width="240" height="26" as="geometry"/></mxCell><object label="DevelopmentCompanySocialLinks +" id="NU3LqY0kfDEqKCWppmfM-8"><mxCell style="swimlane;fontStyle=2;align=center;verticalAlign=top;childLayout=stackLayout;horizontal=1;startSize=26;horizontalStack=0;resizeParent=1;resizeLast=0;collapsible=1;marginBottom=0;rounded=0;shadow=0;strokeWidth=1;" parent="WIyWlLk6GJQsqaUBKTNV-1" vertex="1"><mxGeometry x="-240" y="-280" width="320" height="160" as="geometry"><mxRectangle x="50" y="280" width="160" height="26" as="alternateBounds"/></mxGeometry></mxCell></object><mxCell id="NU3LqY0kfDEqKCWppmfM-9" value="ID:unique" style="text;align=left;verticalAlign=top;spacingLeft=4;spacingRight=4;overflow=hidden;rotatable=0;points=[[0,0.5],[1,0.5]];portConstraint=eastwest;rounded=0;shadow=0;html=0;" parent="NU3LqY0kfDEqKCWppmfM-8" vertex="1"><mxGeometry y="26" width="320" height="26" as="geometry"/></mxCell><mxCell id="NU3LqY0kfDEqKCWppmfM-20" value="developmentCompanyID:DevelopmentCompany.ID unique" style="text;align=left;verticalAlign=top;spacingLeft=4;spacingRight=4;overflow=hidden;rotatable=0;points=[[0,0.5],[1,0.5]];portConstraint=eastwest;" parent="NU3LqY0kfDEqKCWppmfM-8" vertex="1"><mxGeometry y="52" width="320" height="28" as="geometry"/></mxCell><mxCell id="NU3LqY0kfDEqKCWppmfM-22" value="websiteName:string" style="text;align=left;verticalAlign=top;spacingLeft=4;spacingRight=4;overflow=hidden;rotatable=0;points=[[0,0.5],[1,0.5]];portConstraint=eastwest;" parent="NU3LqY0kfDEqKCWppmfM-8" vertex="1"><mxGeometry y="80" width="320" height="26" as="geometry"/></mxCell><mxCell id="NU3LqY0kfDEqKCWppmfM-11" value="link:string" style="text;align=left;verticalAlign=top;spacingLeft=4;spacingRight=4;overflow=hidden;rotatable=0;points=[[0,0.5],[1,0.5]];portConstraint=eastwest;" parent="NU3LqY0kfDEqKCWppmfM-8" vertex="1"><mxGeometry y="106" width="320" height="26" as="geometry"/></mxCell><mxCell id="NU3LqY0kfDEqKCWppmfM-21" style="edgeStyle=orthogonalEdgeStyle;rounded=0;orthogonalLoop=1;jettySize=auto;html=1;fontFamily=Helvetica;fontSize=12;fontColor=default;" parent="WIyWlLk6GJQsqaUBKTNV-1" source="NU3LqY0kfDEqKCWppmfM-20" target="zkfFHV4jXpPFQw0GAbJ--2" edge="1"><mxGeometry relative="1" as="geometry"/></mxCell><object label="Projects" id="NU3LqY0kfDEqKCWppmfM-23"><mxCell style="swimlane;fontStyle=2;align=center;verticalAlign=top;childLayout=stackLayout;horizontal=1;startSize=26;horizontalStack=0;resizeParent=1;resizeLast=0;collapsible=1;marginBottom=0;rounded=0;shadow=0;strokeWidth=1;" parent="WIyWlLk6GJQsqaUBKTNV-1" vertex="1"><mxGeometry x="600" y="-148" width="370" height="392" as="geometry"><mxRectangle x="50" y="280" width="160" height="26" as="alternateBounds"/></mxGeometry></mxCell></object><mxCell id="NU3LqY0kfDEqKCWppmfM-24" value="ID:unique" style="text;align=left;verticalAlign=top;spacingLeft=4;spacingRight=4;overflow=hidden;rotatable=0;points=[[0,0.5],[1,0.5]];portConstraint=eastwest;rounded=0;shadow=0;html=0;" parent="NU3LqY0kfDEqKCWppmfM-23" vertex="1"><mxGeometry y="26" width="370" height="26" as="geometry"/></mxCell><mxCell id="NU3LqY0kfDEqKCWppmfM-25" value="name:string" style="text;align=left;verticalAlign=top;spacingLeft=4;spacingRight=4;overflow=hidden;rotatable=0;points=[[0,0.5],[1,0.5]];portConstraint=eastwest;" parent="NU3LqY0kfDEqKCWppmfM-23" vertex="1"><mxGeometry y="52" width="370" height="28" as="geometry"/></mxCell><mxCell id="NU3LqY0kfDEqKCWppmfM-26" value="developmentCompanyID:DevelopmentCompany.ID" style="text;align=left;verticalAlign=top;spacingLeft=4;spacingRight=4;overflow=hidden;rotatable=0;points=[[0,0.5],[1,0.5]];portConstraint=eastwest;" parent="NU3LqY0kfDEqKCWppmfM-23" vertex="1"><mxGeometry y="80" width="370" height="26" as="geometry"/></mxCell><mxCell id="NU3LqY0kfDEqKCWppmfM-28" value="finished:boolean" style="text;align=left;verticalAlign=top;spacingLeft=4;spacingRight=4;overflow=hidden;rotatable=0;points=[[0,0.5],[1,0.5]];portConstraint=eastwest;" parent="NU3LqY0kfDEqKCWppmfM-23" vertex="1"><mxGeometry y="106" width="370" height="26" as="geometry"/></mxCell><mxCell id="NU3LqY0kfDEqKCWppmfM-29" value="numberOfFloors:number" style="text;align=left;verticalAlign=top;spacingLeft=4;spacingRight=4;overflow=hidden;rotatable=0;points=[[0,0.5],[1,0.5]];portConstraint=eastwest;" parent="NU3LqY0kfDEqKCWppmfM-23" vertex="1"><mxGeometry y="132" width="370" height="26" as="geometry"/></mxCell><mxCell id="NU3LqY0kfDEqKCWppmfM-30" value="adress:string" style="text;align=left;verticalAlign=top;spacingLeft=4;spacingRight=4;overflow=hidden;rotatable=0;points=[[0,0.5],[1,0.5]];portConstraint=eastwest;" parent="NU3LqY0kfDEqKCWppmfM-23" vertex="1"><mxGeometry y="158" width="370" height="26" as="geometry"/></mxCell><mxCell id="NU3LqY0kfDEqKCWppmfM-39" value="projectLocationID:ProjectLocation.id" style="text;align=left;verticalAlign=top;spacingLeft=4;spacingRight=4;overflow=hidden;rotatable=0;points=[[0,0.5],[1,0.5]];portConstraint=eastwest;" parent="NU3LqY0kfDEqKCWppmfM-23" vertex="1"><mxGeometry y="184" width="370" height="26" as="geometry"/></mxCell><mxCell id="NU3LqY0kfDEqKCWppmfM-40" value="completionTime:Date" style="text;align=left;verticalAlign=top;spacingLeft=4;spacingRight=4;overflow=hidden;rotatable=0;points=[[0,0.5],[1,0.5]];portConstraint=eastwest;" parent="NU3LqY0kfDEqKCWppmfM-23" vertex="1"><mxGeometry y="210" width="370" height="26" as="geometry"/></mxCell><mxCell id="NU3LqY0kfDEqKCWppmfM-50" value="isParking:boolean" style="text;align=left;verticalAlign=top;spacingLeft=4;spacingRight=4;overflow=hidden;rotatable=0;points=[[0,0.5],[1,0.5]];portConstraint=eastwest;" parent="NU3LqY0kfDEqKCWppmfM-23" vertex="1"><mxGeometry y="236" width="370" height="26" as="geometry"/></mxCell><mxCell id="NU3LqY0kfDEqKCWppmfM-52" value="parkingProperties:{adress:string,numberOfCars:number}" style="text;align=left;verticalAlign=top;spacingLeft=4;spacingRight=4;overflow=hidden;rotatable=0;points=[[0,0.5],[1,0.5]];portConstraint=eastwest;" parent="NU3LqY0kfDEqKCWppmfM-23" vertex="1"><mxGeometry y="262" width="370" height="26" as="geometry"/></mxCell><mxCell id="NU3LqY0kfDEqKCWppmfM-51" value="minimumPriceSquareMeter:number" style="text;align=left;verticalAlign=top;spacingLeft=4;spacingRight=4;overflow=hidden;rotatable=0;points=[[0,0.5],[1,0.5]];portConstraint=eastwest;" parent="NU3LqY0kfDEqKCWppmfM-23" vertex="1"><mxGeometry y="288" width="370" height="26" as="geometry"/></mxCell><mxCell id="NU3LqY0kfDEqKCWppmfM-27" value="commercialSpace:boolean" style="text;align=left;verticalAlign=top;spacingLeft=4;spacingRight=4;overflow=hidden;rotatable=0;points=[[0,0.5],[1,0.5]];portConstraint=eastwest;" parent="NU3LqY0kfDEqKCWppmfM-23" vertex="1"><mxGeometry y="314" width="370" height="26" as="geometry"/></mxCell><mxCell id="PWABPKc5PPacHre3TSY6-22" value="rating:number" style="text;align=left;verticalAlign=top;spacingLeft=4;spacingRight=4;overflow=hidden;rotatable=0;points=[[0,0.5],[1,0.5]];portConstraint=eastwest;" parent="NU3LqY0kfDEqKCWppmfM-23" vertex="1"><mxGeometry y="340" width="370" height="26" as="geometry"/></mxCell><object label="ProjectLocation" id="NU3LqY0kfDEqKCWppmfM-32"><mxCell style="swimlane;fontStyle=2;align=center;verticalAlign=top;childLayout=stackLayout;horizontal=1;startSize=26;horizontalStack=0;resizeParent=1;resizeLast=0;collapsible=1;marginBottom=0;rounded=0;shadow=0;strokeWidth=1;" parent="WIyWlLk6GJQsqaUBKTNV-1" vertex="1"><mxGeometry x="1000" y="90" width="180" height="132" as="geometry"><mxRectangle x="50" y="280" width="160" height="26" as="alternateBounds"/></mxGeometry></mxCell></object><mxCell id="NU3LqY0kfDEqKCWppmfM-33" value="ID:unique" style="text;align=left;verticalAlign=top;spacingLeft=4;spacingRight=4;overflow=hidden;rotatable=0;points=[[0,0.5],[1,0.5]];portConstraint=eastwest;rounded=0;shadow=0;html=0;" parent="NU3LqY0kfDEqKCWppmfM-32" vertex="1"><mxGeometry y="26" width="180" height="26" as="geometry"/></mxCell><mxCell id="NU3LqY0kfDEqKCWppmfM-34" value="projectID:Projects.ID string,unique" style="text;align=left;verticalAlign=top;spacingLeft=4;spacingRight=4;overflow=hidden;rotatable=0;points=[[0,0.5],[1,0.5]];portConstraint=eastwest;" parent="NU3LqY0kfDEqKCWppmfM-32" vertex="1"><mxGeometry y="52" width="180" height="28" as="geometry"/></mxCell><mxCell id="NU3LqY0kfDEqKCWppmfM-35" value="latitude:number" style="text;align=left;verticalAlign=top;spacingLeft=4;spacingRight=4;overflow=hidden;rotatable=0;points=[[0,0.5],[1,0.5]];portConstraint=eastwest;" parent="NU3LqY0kfDEqKCWppmfM-32" vertex="1"><mxGeometry y="80" width="180" height="26" as="geometry"/></mxCell><mxCell id="NU3LqY0kfDEqKCWppmfM-36" value="longitude:number" style="text;align=left;verticalAlign=top;spacingLeft=4;spacingRight=4;overflow=hidden;rotatable=0;points=[[0,0.5],[1,0.5]];portConstraint=eastwest;" parent="NU3LqY0kfDEqKCWppmfM-32" vertex="1"><mxGeometry y="106" width="180" height="26" as="geometry"/></mxCell><mxCell id="NU3LqY0kfDEqKCWppmfM-37" style="edgeStyle=orthogonalEdgeStyle;rounded=0;orthogonalLoop=1;jettySize=auto;html=1;entryX=0;entryY=0.5;entryDx=0;entryDy=0;fontFamily=Helvetica;fontSize=12;fontColor=default;" parent="WIyWlLk6GJQsqaUBKTNV-1" source="NU3LqY0kfDEqKCWppmfM-34" target="NU3LqY0kfDEqKCWppmfM-24" edge="1"><mxGeometry relative="1" as="geometry"/></mxCell><mxCell id="NU3LqY0kfDEqKCWppmfM-42" style="edgeStyle=orthogonalEdgeStyle;rounded=0;orthogonalLoop=1;jettySize=auto;html=1;entryX=1.011;entryY=0.129;entryDx=0;entryDy=0;entryPerimeter=0;fontFamily=Helvetica;fontSize=12;fontColor=default;" parent="WIyWlLk6GJQsqaUBKTNV-1" source="NU3LqY0kfDEqKCWppmfM-39" target="NU3LqY0kfDEqKCWppmfM-32" edge="1"><mxGeometry relative="1" as="geometry"/></mxCell><object label="DevelopmentCompanyRates +" id="PWABPKc5PPacHre3TSY6-3"><mxCell style="swimlane;fontStyle=2;align=center;verticalAlign=top;childLayout=stackLayout;horizontal=1;startSize=26;horizontalStack=0;resizeParent=1;resizeLast=0;collapsible=1;marginBottom=0;rounded=0;shadow=0;strokeWidth=1;" parent="WIyWlLk6GJQsqaUBKTNV-1" vertex="1"><mxGeometry x="110" y="-440" width="320" height="170" as="geometry"><mxRectangle x="50" y="280" width="160" height="26" as="alternateBounds"/></mxGeometry></mxCell></object><mxCell id="PWABPKc5PPacHre3TSY6-4" value="ID:unique" style="text;align=left;verticalAlign=top;spacingLeft=4;spacingRight=4;overflow=hidden;rotatable=0;points=[[0,0.5],[1,0.5]];portConstraint=eastwest;rounded=0;shadow=0;html=0;" parent="PWABPKc5PPacHre3TSY6-3" vertex="1"><mxGeometry y="26" width="320" height="26" as="geometry"/></mxCell><mxCell id="PWABPKc5PPacHre3TSY6-6" value="voterID:User.id" style="text;align=left;verticalAlign=top;spacingLeft=4;spacingRight=4;overflow=hidden;rotatable=0;points=[[0,0.5],[1,0.5]];portConstraint=eastwest;" parent="PWABPKc5PPacHre3TSY6-3" vertex="1"><mxGeometry y="52" width="320" height="26" as="geometry"/></mxCell><mxCell id="PWABPKc5PPacHre3TSY6-5" value="Score:number" style="text;align=left;verticalAlign=top;spacingLeft=4;spacingRight=4;overflow=hidden;rotatable=0;points=[[0,0.5],[1,0.5]];portConstraint=eastwest;" parent="PWABPKc5PPacHre3TSY6-3" vertex="1"><mxGeometry y="78" width="320" height="28" as="geometry"/></mxCell><mxCell id="PWABPKc5PPacHre3TSY6-15" value="developmentCompanyID:DevelopmentCompany.ID" style="text;align=left;verticalAlign=top;spacingLeft=4;spacingRight=4;overflow=hidden;rotatable=0;points=[[0,0.5],[1,0.5]];portConstraint=eastwest;" parent="PWABPKc5PPacHre3TSY6-3" vertex="1"><mxGeometry y="106" width="320" height="26" as="geometry"/></mxCell><object label="User" id="PWABPKc5PPacHre3TSY6-8"><mxCell style="swimlane;fontStyle=2;align=center;verticalAlign=top;childLayout=stackLayout;horizontal=1;startSize=26;horizontalStack=0;resizeParent=1;resizeLast=0;collapsible=1;marginBottom=0;rounded=0;shadow=0;strokeWidth=1;" parent="WIyWlLk6GJQsqaUBKTNV-1" vertex="1"><mxGeometry x="40" y="202" width="330" height="104" as="geometry"><mxRectangle x="50" y="280" width="160" height="26" as="alternateBounds"/></mxGeometry></mxCell></object><mxCell id="PWABPKc5PPacHre3TSY6-9" value="ID:unique" style="text;align=left;verticalAlign=top;spacingLeft=4;spacingRight=4;overflow=hidden;rotatable=0;points=[[0,0.5],[1,0.5]];portConstraint=eastwest;rounded=0;shadow=0;html=0;" parent="PWABPKc5PPacHre3TSY6-8" vertex="1"><mxGeometry y="26" width="330" height="26" as="geometry"/></mxCell><mxCell id="PWABPKc5PPacHre3TSY6-12" value="role:string" style="text;align=left;verticalAlign=top;spacingLeft=4;spacingRight=4;overflow=hidden;rotatable=0;points=[[0,0.5],[1,0.5]];portConstraint=eastwest;" parent="PWABPKc5PPacHre3TSY6-8" vertex="1"><mxGeometry y="52" width="330" height="26" as="geometry"/></mxCell><mxCell id="0" value="email:string" style="text;align=left;verticalAlign=top;spacingLeft=4;spacingRight=4;overflow=hidden;rotatable=0;points=[[0,0.5],[1,0.5]];portConstraint=eastwest;rounded=0;shadow=0;html=0;" parent="PWABPKc5PPacHre3TSY6-8" vertex="1"><mxGeometry y="78" width="330" height="26" as="geometry"/></mxCell><mxCell id="PWABPKc5PPacHre3TSY6-20" style="edgeStyle=orthogonalEdgeStyle;rounded=0;orthogonalLoop=1;jettySize=auto;html=1;entryX=0;entryY=0.5;entryDx=0;entryDy=0;" parent="WIyWlLk6GJQsqaUBKTNV-1" source="PWABPKc5PPacHre3TSY6-6" target="PWABPKc5PPacHre3TSY6-9" edge="1"><mxGeometry relative="1" as="geometry"/></mxCell><mxCell id="PWABPKc5PPacHre3TSY6-21" style="edgeStyle=orthogonalEdgeStyle;rounded=0;orthogonalLoop=1;jettySize=auto;html=1;" parent="WIyWlLk6GJQsqaUBKTNV-1" source="PWABPKc5PPacHre3TSY6-15" target="zkfFHV4jXpPFQw0GAbJ--2" edge="1"><mxGeometry relative="1" as="geometry"/></mxCell><object label="ProjectRates" id="PWABPKc5PPacHre3TSY6-23"><mxCell style="swimlane;fontStyle=2;align=center;verticalAlign=top;childLayout=stackLayout;horizontal=1;startSize=26;horizontalStack=0;resizeParent=1;resizeLast=0;collapsible=1;marginBottom=0;rounded=0;shadow=0;strokeWidth=1;" parent="WIyWlLk6GJQsqaUBKTNV-1" vertex="1"><mxGeometry x="610" y="-430" width="320" height="150" as="geometry"><mxRectangle x="50" y="280" width="160" height="26" as="alternateBounds"/></mxGeometry></mxCell></object><mxCell id="PWABPKc5PPacHre3TSY6-24" value="ID:unique" style="text;align=left;verticalAlign=top;spacingLeft=4;spacingRight=4;overflow=hidden;rotatable=0;points=[[0,0.5],[1,0.5]];portConstraint=eastwest;rounded=0;shadow=0;html=0;" parent="PWABPKc5PPacHre3TSY6-23" vertex="1"><mxGeometry y="26" width="320" height="26" as="geometry"/></mxCell><mxCell id="PWABPKc5PPacHre3TSY6-26" value="voterID:User.id" style="text;align=left;verticalAlign=top;spacingLeft=4;spacingRight=4;overflow=hidden;rotatable=0;points=[[0,0.5],[1,0.5]];portConstraint=eastwest;" parent="PWABPKc5PPacHre3TSY6-23" vertex="1"><mxGeometry y="52" width="320" height="26" as="geometry"/></mxCell><mxCell id="PWABPKc5PPacHre3TSY6-25" value="Score:number" style="text;align=left;verticalAlign=top;spacingLeft=4;spacingRight=4;overflow=hidden;rotatable=0;points=[[0,0.5],[1,0.5]];portConstraint=eastwest;" parent="PWABPKc5PPacHre3TSY6-23" vertex="1"><mxGeometry y="78" width="320" height="28" as="geometry"/></mxCell><mxCell id="PWABPKc5PPacHre3TSY6-27" value="projectID:Projects.ID" style="text;align=left;verticalAlign=top;spacingLeft=4;spacingRight=4;overflow=hidden;rotatable=0;points=[[0,0.5],[1,0.5]];portConstraint=eastwest;" parent="PWABPKc5PPacHre3TSY6-23" vertex="1"><mxGeometry y="106" width="320" height="26" as="geometry"/></mxCell><mxCell id="PWABPKc5PPacHre3TSY6-28" style="edgeStyle=orthogonalEdgeStyle;rounded=0;orthogonalLoop=1;jettySize=auto;html=1;entryX=1;entryY=0.5;entryDx=0;entryDy=0;" parent="WIyWlLk6GJQsqaUBKTNV-1" source="PWABPKc5PPacHre3TSY6-26" target="PWABPKc5PPacHre3TSY6-9" edge="1"><mxGeometry relative="1" as="geometry"/></mxCell><mxCell id="PWABPKc5PPacHre3TSY6-29" style="edgeStyle=orthogonalEdgeStyle;rounded=0;orthogonalLoop=1;jettySize=auto;html=1;entryX=1.002;entryY=0.724;entryDx=0;entryDy=0;entryPerimeter=0;" parent="WIyWlLk6GJQsqaUBKTNV-1" source="PWABPKc5PPacHre3TSY6-27" target="NU3LqY0kfDEqKCWppmfM-24" edge="1"><mxGeometry relative="1" as="geometry"/></mxCell><object label="ProjectRoomsPhotos" id="PWABPKc5PPacHre3TSY6-31"><mxCell style="swimlane;fontStyle=2;align=center;verticalAlign=top;childLayout=stackLayout;horizontal=1;startSize=26;horizontalStack=0;resizeParent=1;resizeLast=0;collapsible=1;marginBottom=0;rounded=0;shadow=0;strokeWidth=1;" parent="WIyWlLk6GJQsqaUBKTNV-1" vertex="1"><mxGeometry x="1040" y="-340" width="180" height="158" as="geometry"><mxRectangle x="50" y="280" width="160" height="26" as="alternateBounds"/></mxGeometry></mxCell></object><mxCell id="PWABPKc5PPacHre3TSY6-32" value="ID:unique" style="text;align=left;verticalAlign=top;spacingLeft=4;spacingRight=4;overflow=hidden;rotatable=0;points=[[0,0.5],[1,0.5]];portConstraint=eastwest;rounded=0;shadow=0;html=0;" parent="PWABPKc5PPacHre3TSY6-31" vertex="1"><mxGeometry y="26" width="180" height="26" as="geometry"/></mxCell><mxCell id="PWABPKc5PPacHre3TSY6-33" value="ProjectID:Project.ID" style="text;align=left;verticalAlign=top;spacingLeft=4;spacingRight=4;overflow=hidden;rotatable=0;points=[[0,0.5],[1,0.5]];portConstraint=eastwest;" parent="PWABPKc5PPacHre3TSY6-31" vertex="1"><mxGeometry y="52" width="180" height="28" as="geometry"/></mxCell><mxCell id="PWABPKc5PPacHre3TSY6-34" value="photo:string" style="text;align=left;verticalAlign=top;spacingLeft=4;spacingRight=4;overflow=hidden;rotatable=0;points=[[0,0.5],[1,0.5]];portConstraint=eastwest;" parent="PWABPKc5PPacHre3TSY6-31" vertex="1"><mxGeometry y="80" width="180" height="26" as="geometry"/></mxCell><mxCell id="PWABPKc5PPacHre3TSY6-35" value="roomType:string" style="text;align=left;verticalAlign=top;spacingLeft=4;spacingRight=4;overflow=hidden;rotatable=0;points=[[0,0.5],[1,0.5]];portConstraint=eastwest;" parent="PWABPKc5PPacHre3TSY6-31" vertex="1"><mxGeometry y="106" width="180" height="26" as="geometry"/></mxCell><mxCell id="PWABPKc5PPacHre3TSY6-38" value="roomNumber:number" style="text;align=left;verticalAlign=top;spacingLeft=4;spacingRight=4;overflow=hidden;rotatable=0;points=[[0,0.5],[1,0.5]];portConstraint=eastwest;" parent="PWABPKc5PPacHre3TSY6-31" vertex="1"><mxGeometry y="132" width="180" height="26" as="geometry"/></mxCell><mxCell id="PWABPKc5PPacHre3TSY6-39" style="edgeStyle=orthogonalEdgeStyle;rounded=0;orthogonalLoop=1;jettySize=auto;html=1;" parent="WIyWlLk6GJQsqaUBKTNV-1" source="PWABPKc5PPacHre3TSY6-33" target="NU3LqY0kfDEqKCWppmfM-24" edge="1"><mxGeometry relative="1" as="geometry"/></mxCell><object label="DevelopemtnCompanyLogos +" id="PWABPKc5PPacHre3TSY6-41"><mxCell style="swimlane;fontStyle=2;align=center;verticalAlign=top;childLayout=stackLayout;horizontal=1;startSize=26;horizontalStack=0;resizeParent=1;resizeLast=0;collapsible=1;marginBottom=0;rounded=0;shadow=0;strokeWidth=1;" parent="WIyWlLk6GJQsqaUBKTNV-1" vertex="1"><mxGeometry x="-210" y="-60" width="320" height="165" as="geometry"><mxRectangle x="50" y="280" width="160" height="26" as="alternateBounds"/></mxGeometry></mxCell></object><mxCell id="PWABPKc5PPacHre3TSY6-42" value="ID:unique" style="text;align=left;verticalAlign=top;spacingLeft=4;spacingRight=4;overflow=hidden;rotatable=0;points=[[0,0.5],[1,0.5]];portConstraint=eastwest;rounded=0;shadow=0;html=0;" parent="PWABPKc5PPacHre3TSY6-41" vertex="1"><mxGeometry y="26" width="320" height="26" as="geometry"/></mxCell><mxCell id="PWABPKc5PPacHre3TSY6-43" value="developmentCompanyID:DevelopmentCompany.ID" style="text;align=left;verticalAlign=top;spacingLeft=4;spacingRight=4;overflow=hidden;rotatable=0;points=[[0,0.5],[1,0.5]];portConstraint=eastwest;" parent="PWABPKc5PPacHre3TSY6-41" vertex="1"><mxGeometry y="52" width="320" height="28" as="geometry"/></mxCell><mxCell id="PWABPKc5PPacHre3TSY6-44" value="logo:string" style="text;align=left;verticalAlign=top;spacingLeft=4;spacingRight=4;overflow=hidden;rotatable=0;points=[[0,0.5],[1,0.5]];portConstraint=eastwest;" parent="PWABPKc5PPacHre3TSY6-41" vertex="1"><mxGeometry y="80" width="320" height="26" as="geometry"/></mxCell><mxCell id="PWABPKc5PPacHre3TSY6-47" style="edgeStyle=orthogonalEdgeStyle;rounded=0;orthogonalLoop=1;jettySize=auto;html=1;entryX=0;entryY=0.5;entryDx=0;entryDy=0;" parent="WIyWlLk6GJQsqaUBKTNV-1" source="PWABPKc5PPacHre3TSY6-43" target="zkfFHV4jXpPFQw0GAbJ--2" edge="1"><mxGeometry relative="1" as="geometry"/></mxCell><object label="Designer" id="PWABPKc5PPacHre3TSY6-48"><mxCell style="swimlane;fontStyle=2;align=center;verticalAlign=top;childLayout=stackLayout;horizontal=1;startSize=26;horizontalStack=0;resizeParent=1;resizeLast=0;collapsible=1;marginBottom=0;rounded=0;shadow=0;strokeWidth=1;" parent="WIyWlLk6GJQsqaUBKTNV-1" vertex="1"><mxGeometry x="490" y="290" width="300" height="344" as="geometry"><mxRectangle x="50" y="280" width="160" height="26" as="alternateBounds"/></mxGeometry></mxCell></object><mxCell id="PWABPKc5PPacHre3TSY6-49" value="ID:unique" style="text;align=left;verticalAlign=top;spacingLeft=4;spacingRight=4;overflow=hidden;rotatable=0;points=[[0,0.5],[1,0.5]];portConstraint=eastwest;rounded=0;shadow=0;html=0;" parent="PWABPKc5PPacHre3TSY6-48" vertex="1"><mxGeometry y="26" width="300" height="26" as="geometry"/></mxCell><mxCell id="PWABPKc5PPacHre3TSY6-50" style="edgeStyle=orthogonalEdgeStyle;rounded=0;orthogonalLoop=1;jettySize=auto;html=1;exitX=1;exitY=0.5;exitDx=0;exitDy=0;entryX=1;entryY=0.5;entryDx=0;entryDy=0;fontFamily=Helvetica;fontSize=12;fontColor=default;" parent="PWABPKc5PPacHre3TSY6-48" source="PWABPKc5PPacHre3TSY6-51" target="PWABPKc5PPacHre3TSY6-49" edge="1"><mxGeometry relative="1" as="geometry"/></mxCell><mxCell id="PWABPKc5PPacHre3TSY6-51" value="email:string,unique" style="text;align=left;verticalAlign=top;spacingLeft=4;spacingRight=4;overflow=hidden;rotatable=0;points=[[0,0.5],[1,0.5]];portConstraint=eastwest;" parent="PWABPKc5PPacHre3TSY6-48" vertex="1"><mxGeometry y="52" width="300" height="26" as="geometry"/></mxCell><mxCell id="PWABPKc5PPacHre3TSY6-61" value="name:string" style="text;align=left;verticalAlign=top;spacingLeft=4;spacingRight=4;overflow=hidden;rotatable=0;points=[[0,0.5],[1,0.5]];portConstraint=eastwest;" parent="PWABPKc5PPacHre3TSY6-48" vertex="1"><mxGeometry y="78" width="300" height="26" as="geometry"/></mxCell><mxCell id="PWABPKc5PPacHre3TSY6-60" value="lastname:string" style="text;align=left;verticalAlign=top;spacingLeft=4;spacingRight=4;overflow=hidden;rotatable=0;points=[[0,0.5],[1,0.5]];portConstraint=eastwest;" parent="PWABPKc5PPacHre3TSY6-48" vertex="1"><mxGeometry y="104" width="300" height="26" as="geometry"/></mxCell><mxCell id="PWABPKc5PPacHre3TSY6-66" value="age:number" style="text;align=left;verticalAlign=top;spacingLeft=4;spacingRight=4;overflow=hidden;rotatable=0;points=[[0,0.5],[1,0.5]];portConstraint=eastwest;" parent="PWABPKc5PPacHre3TSY6-48" vertex="1"><mxGeometry y="130" width="300" height="26" as="geometry"/></mxCell><mxCell id="PWABPKc5PPacHre3TSY6-52" value="adress:string" style="text;align=left;verticalAlign=top;spacingLeft=4;spacingRight=4;overflow=hidden;rotatable=0;points=[[0,0.5],[1,0.5]];portConstraint=eastwest;" parent="PWABPKc5PPacHre3TSY6-48" vertex="1"><mxGeometry y="156" width="300" height="26" as="geometry"/></mxCell><mxCell id="PWABPKc5PPacHre3TSY6-62" value="phone:string" style="text;align=left;verticalAlign=top;spacingLeft=4;spacingRight=4;overflow=hidden;rotatable=0;points=[[0,0.5],[1,0.5]];portConstraint=eastwest;" parent="PWABPKc5PPacHre3TSY6-48" vertex="1"><mxGeometry y="182" width="300" height="26" as="geometry"/></mxCell><mxCell id="PWABPKc5PPacHre3TSY6-63" value="developmentCompanyID:DevelopmentCompany.ID" style="text;align=left;verticalAlign=top;spacingLeft=4;spacingRight=4;overflow=hidden;rotatable=0;points=[[0,0.5],[1,0.5]];portConstraint=eastwest;" parent="PWABPKc5PPacHre3TSY6-48" vertex="1"><mxGeometry y="208" width="300" height="26" as="geometry"/></mxCell><mxCell id="PWABPKc5PPacHre3TSY6-74" value="isfree:boolean" style="text;align=left;verticalAlign=top;spacingLeft=4;spacingRight=4;overflow=hidden;rotatable=0;points=[[0,0.5],[1,0.5]];portConstraint=eastwest;" parent="PWABPKc5PPacHre3TSY6-48" vertex="1"><mxGeometry y="234" width="300" height="26" as="geometry"/></mxCell><mxCell id="PWABPKc5PPacHre3TSY6-90" value="rating:number" style="text;align=left;verticalAlign=top;spacingLeft=4;spacingRight=4;overflow=hidden;rotatable=0;points=[[0,0.5],[1,0.5]];portConstraint=eastwest;" parent="PWABPKc5PPacHre3TSY6-48" vertex="1"><mxGeometry y="260" width="300" height="26" as="geometry"/></mxCell><mxCell id="PWABPKc5PPacHre3TSY6-86" value="userID:User.ID" style="text;align=left;verticalAlign=top;spacingLeft=4;spacingRight=4;overflow=hidden;rotatable=0;points=[[0,0.5],[1,0.5]];portConstraint=eastwest;" parent="PWABPKc5PPacHre3TSY6-48" vertex="1"><mxGeometry y="286" width="300" height="26" as="geometry"/></mxCell><mxCell id="PWABPKc5PPacHre3TSY6-97" value="avatarID:DesignerAvatar.ID" style="text;align=left;verticalAlign=top;spacingLeft=4;spacingRight=4;overflow=hidden;rotatable=0;points=[[0,0.5],[1,0.5]];portConstraint=eastwest;" parent="PWABPKc5PPacHre3TSY6-48" vertex="1"><mxGeometry y="312" width="300" height="26" as="geometry"/></mxCell><mxCell id="PWABPKc5PPacHre3TSY6-64" style="edgeStyle=orthogonalEdgeStyle;rounded=0;orthogonalLoop=1;jettySize=auto;html=1;entryX=1;entryY=0.5;entryDx=0;entryDy=0;" parent="WIyWlLk6GJQsqaUBKTNV-1" source="PWABPKc5PPacHre3TSY6-63" target="zkfFHV4jXpPFQw0GAbJ--2" edge="1"><mxGeometry relative="1" as="geometry"/></mxCell><mxCell id="PWABPKc5PPacHre3TSY6-65" style="edgeStyle=orthogonalEdgeStyle;rounded=0;orthogonalLoop=1;jettySize=auto;html=1;entryX=1;entryY=0.5;entryDx=0;entryDy=0;" parent="WIyWlLk6GJQsqaUBKTNV-1" source="NU3LqY0kfDEqKCWppmfM-26" target="zkfFHV4jXpPFQw0GAbJ--2" edge="1"><mxGeometry relative="1" as="geometry"/></mxCell><object label="FreeRooms" id="PWABPKc5PPacHre3TSY6-67"><mxCell style="swimlane;fontStyle=2;align=center;verticalAlign=top;childLayout=stackLayout;horizontal=1;startSize=26;horizontalStack=0;resizeParent=1;resizeLast=0;collapsible=1;marginBottom=0;rounded=0;shadow=0;strokeWidth=1;" parent="WIyWlLk6GJQsqaUBKTNV-1" vertex="1"><mxGeometry x="1030" y="-140" width="180" height="158" as="geometry"><mxRectangle x="50" y="280" width="160" height="26" as="alternateBounds"/></mxGeometry></mxCell></object><mxCell id="PWABPKc5PPacHre3TSY6-68" value="ID:unique" style="text;align=left;verticalAlign=top;spacingLeft=4;spacingRight=4;overflow=hidden;rotatable=0;points=[[0,0.5],[1,0.5]];portConstraint=eastwest;rounded=0;shadow=0;html=0;" parent="PWABPKc5PPacHre3TSY6-67" vertex="1"><mxGeometry y="26" width="180" height="26" as="geometry"/></mxCell><mxCell id="PWABPKc5PPacHre3TSY6-69" value="ProjectID:Project.ID" style="text;align=left;verticalAlign=top;spacingLeft=4;spacingRight=4;overflow=hidden;rotatable=0;points=[[0,0.5],[1,0.5]];portConstraint=eastwest;" parent="PWABPKc5PPacHre3TSY6-67" vertex="1"><mxGeometry y="52" width="180" height="28" as="geometry"/></mxCell><mxCell id="PWABPKc5PPacHre3TSY6-70" value="freeRoomNumber:number" style="text;align=left;verticalAlign=top;spacingLeft=4;spacingRight=4;overflow=hidden;rotatable=0;points=[[0,0.5],[1,0.5]];portConstraint=eastwest;" parent="PWABPKc5PPacHre3TSY6-67" vertex="1"><mxGeometry y="80" width="180" height="26" as="geometry"/></mxCell><mxCell id="PWABPKc5PPacHre3TSY6-71" value="roomType:string" style="text;align=left;verticalAlign=top;spacingLeft=4;spacingRight=4;overflow=hidden;rotatable=0;points=[[0,0.5],[1,0.5]];portConstraint=eastwest;" parent="PWABPKc5PPacHre3TSY6-67" vertex="1"><mxGeometry y="106" width="180" height="26" as="geometry"/></mxCell><mxCell id="PWABPKc5PPacHre3TSY6-72" value="floor:number" style="text;align=left;verticalAlign=top;spacingLeft=4;spacingRight=4;overflow=hidden;rotatable=0;points=[[0,0.5],[1,0.5]];portConstraint=eastwest;" parent="PWABPKc5PPacHre3TSY6-67" vertex="1"><mxGeometry y="132" width="180" height="26" as="geometry"/></mxCell><mxCell id="PWABPKc5PPacHre3TSY6-73" style="edgeStyle=orthogonalEdgeStyle;rounded=0;orthogonalLoop=1;jettySize=auto;html=1;entryX=1;entryY=0.5;entryDx=0;entryDy=0;" parent="WIyWlLk6GJQsqaUBKTNV-1" source="PWABPKc5PPacHre3TSY6-69" target="NU3LqY0kfDEqKCWppmfM-24" edge="1"><mxGeometry relative="1" as="geometry"/></mxCell><object label="DesignerPortfolio" id="PWABPKc5PPacHre3TSY6-75"><mxCell style="swimlane;fontStyle=2;align=center;verticalAlign=top;childLayout=stackLayout;horizontal=1;startSize=26;horizontalStack=0;resizeParent=1;resizeLast=0;collapsible=1;marginBottom=0;rounded=0;shadow=0;strokeWidth=1;" parent="WIyWlLk6GJQsqaUBKTNV-1" vertex="1"><mxGeometry x="860" y="320" width="180" height="80" as="geometry"><mxRectangle x="50" y="280" width="160" height="26" as="alternateBounds"/></mxGeometry></mxCell></object><mxCell id="PWABPKc5PPacHre3TSY6-76" value="ID:unique" style="text;align=left;verticalAlign=top;spacingLeft=4;spacingRight=4;overflow=hidden;rotatable=0;points=[[0,0.5],[1,0.5]];portConstraint=eastwest;rounded=0;shadow=0;html=0;" parent="PWABPKc5PPacHre3TSY6-75" vertex="1"><mxGeometry y="26" width="180" height="26" as="geometry"/></mxCell><mxCell id="PWABPKc5PPacHre3TSY6-77" value="designerID:Designer.id" style="text;align=left;verticalAlign=top;spacingLeft=4;spacingRight=4;overflow=hidden;rotatable=0;points=[[0,0.5],[1,0.5]];portConstraint=eastwest;" parent="PWABPKc5PPacHre3TSY6-75" vertex="1"><mxGeometry y="52" width="180" height="28" as="geometry"/></mxCell><mxCell id="PWABPKc5PPacHre3TSY6-84" style="edgeStyle=orthogonalEdgeStyle;rounded=0;orthogonalLoop=1;jettySize=auto;html=1;" parent="WIyWlLk6GJQsqaUBKTNV-1" source="PWABPKc5PPacHre3TSY6-80" target="PWABPKc5PPacHre3TSY6-76" edge="1"><mxGeometry relative="1" as="geometry"/></mxCell><object label="DesignerPortoflioPhotos" id="PWABPKc5PPacHre3TSY6-80"><mxCell style="swimlane;fontStyle=2;align=center;verticalAlign=top;childLayout=stackLayout;horizontal=1;startSize=26;horizontalStack=0;resizeParent=1;resizeLast=0;collapsible=1;marginBottom=0;rounded=0;shadow=0;strokeWidth=1;" parent="WIyWlLk6GJQsqaUBKTNV-1" vertex="1"><mxGeometry x="860" y="440" width="240" height="110" as="geometry"><mxRectangle x="50" y="280" width="160" height="26" as="alternateBounds"/></mxGeometry></mxCell></object><mxCell id="PWABPKc5PPacHre3TSY6-81" value="ID:unique" style="text;align=left;verticalAlign=top;spacingLeft=4;spacingRight=4;overflow=hidden;rotatable=0;points=[[0,0.5],[1,0.5]];portConstraint=eastwest;rounded=0;shadow=0;html=0;" parent="PWABPKc5PPacHre3TSY6-80" vertex="1"><mxGeometry y="26" width="240" height="26" as="geometry"/></mxCell><mxCell id="PWABPKc5PPacHre3TSY6-82" value="designerPortoflioID:DesignerPortfolio.ID" style="text;align=left;verticalAlign=top;spacingLeft=4;spacingRight=4;overflow=hidden;rotatable=0;points=[[0,0.5],[1,0.5]];portConstraint=eastwest;" parent="PWABPKc5PPacHre3TSY6-80" vertex="1"><mxGeometry y="52" width="240" height="28" as="geometry"/></mxCell><mxCell id="PWABPKc5PPacHre3TSY6-83" value="photo:string" style="text;align=left;verticalAlign=top;spacingLeft=4;spacingRight=4;overflow=hidden;rotatable=0;points=[[0,0.5],[1,0.5]];portConstraint=eastwest;" parent="PWABPKc5PPacHre3TSY6-80" vertex="1"><mxGeometry y="80" width="240" height="26" as="geometry"/></mxCell><mxCell id="PWABPKc5PPacHre3TSY6-85" style="edgeStyle=orthogonalEdgeStyle;rounded=0;orthogonalLoop=1;jettySize=auto;html=1;" parent="WIyWlLk6GJQsqaUBKTNV-1" source="PWABPKc5PPacHre3TSY6-77" target="PWABPKc5PPacHre3TSY6-49" edge="1"><mxGeometry relative="1" as="geometry"/></mxCell><mxCell id="PWABPKc5PPacHre3TSY6-88" style="edgeStyle=orthogonalEdgeStyle;rounded=0;orthogonalLoop=1;jettySize=auto;html=1;entryX=1.007;entryY=0.715;entryDx=0;entryDy=0;entryPerimeter=0;" parent="WIyWlLk6GJQsqaUBKTNV-1" source="PWABPKc5PPacHre3TSY6-17" target="PWABPKc5PPacHre3TSY6-9" edge="1"><mxGeometry relative="1" as="geometry"/></mxCell><mxCell id="PWABPKc5PPacHre3TSY6-89" style="edgeStyle=orthogonalEdgeStyle;rounded=0;orthogonalLoop=1;jettySize=auto;html=1;entryX=1;entryY=0.5;entryDx=0;entryDy=0;" parent="WIyWlLk6GJQsqaUBKTNV-1" source="PWABPKc5PPacHre3TSY6-86" target="PWABPKc5PPacHre3TSY6-9" edge="1"><mxGeometry relative="1" as="geometry"/></mxCell><object label="DesignerRate" id="PWABPKc5PPacHre3TSY6-91"><mxCell style="swimlane;fontStyle=2;align=center;verticalAlign=top;childLayout=stackLayout;horizontal=1;startSize=26;horizontalStack=0;resizeParent=1;resizeLast=0;collapsible=1;marginBottom=0;rounded=0;shadow=0;strokeWidth=1;" parent="WIyWlLk6GJQsqaUBKTNV-1" vertex="1"><mxGeometry x="370" y="650" width="310" height="150" as="geometry"><mxRectangle x="50" y="280" width="160" height="26" as="alternateBounds"/></mxGeometry></mxCell></object><mxCell id="PWABPKc5PPacHre3TSY6-92" value="ID:unique" style="text;align=left;verticalAlign=top;spacingLeft=4;spacingRight=4;overflow=hidden;rotatable=0;points=[[0,0.5],[1,0.5]];portConstraint=eastwest;rounded=0;shadow=0;html=0;" parent="PWABPKc5PPacHre3TSY6-91" vertex="1"><mxGeometry y="26" width="310" height="26" as="geometry"/></mxCell><mxCell id="PWABPKc5PPacHre3TSY6-93" value="Score:number" style="text;align=left;verticalAlign=top;spacingLeft=4;spacingRight=4;overflow=hidden;rotatable=0;points=[[0,0.5],[1,0.5]];portConstraint=eastwest;" parent="PWABPKc5PPacHre3TSY6-91" vertex="1"><mxGeometry y="52" width="310" height="28" as="geometry"/></mxCell><mxCell id="PWABPKc5PPacHre3TSY6-94" value="voterID:User.id" style="text;align=left;verticalAlign=top;spacingLeft=4;spacingRight=4;overflow=hidden;rotatable=0;points=[[0,0.5],[1,0.5]];portConstraint=eastwest;" parent="PWABPKc5PPacHre3TSY6-91" vertex="1"><mxGeometry y="80" width="310" height="26" as="geometry"/></mxCell><mxCell id="PWABPKc5PPacHre3TSY6-95" value="designerID:Designer.ID" style="text;align=left;verticalAlign=top;spacingLeft=4;spacingRight=4;overflow=hidden;rotatable=0;points=[[0,0.5],[1,0.5]];portConstraint=eastwest;" parent="PWABPKc5PPacHre3TSY6-91" vertex="1"><mxGeometry y="106" width="310" height="26" as="geometry"/></mxCell><mxCell id="PWABPKc5PPacHre3TSY6-96" style="edgeStyle=orthogonalEdgeStyle;rounded=0;orthogonalLoop=1;jettySize=auto;html=1;" parent="WIyWlLk6GJQsqaUBKTNV-1" source="PWABPKc5PPacHre3TSY6-94" target="PWABPKc5PPacHre3TSY6-9" edge="1"><mxGeometry relative="1" as="geometry"/></mxCell><mxCell id="PWABPKc5PPacHre3TSY6-98" style="edgeStyle=orthogonalEdgeStyle;rounded=0;orthogonalLoop=1;jettySize=auto;html=1;entryX=1;entryY=0.5;entryDx=0;entryDy=0;" parent="WIyWlLk6GJQsqaUBKTNV-1" source="PWABPKc5PPacHre3TSY6-95" target="PWABPKc5PPacHre3TSY6-49" edge="1"><mxGeometry relative="1" as="geometry"/></mxCell><object label="DesignerAvatar" id="PWABPKc5PPacHre3TSY6-99"><mxCell style="swimlane;fontStyle=2;align=center;verticalAlign=top;childLayout=stackLayout;horizontal=1;startSize=26;horizontalStack=0;resizeParent=1;resizeLast=0;collapsible=1;marginBottom=0;rounded=0;shadow=0;strokeWidth=1;" parent="WIyWlLk6GJQsqaUBKTNV-1" vertex="1"><mxGeometry x="870" y="610" width="240" height="110" as="geometry"><mxRectangle x="50" y="280" width="160" height="26" as="alternateBounds"/></mxGeometry></mxCell></object><mxCell id="PWABPKc5PPacHre3TSY6-100" value="ID:unique" style="text;align=left;verticalAlign=top;spacingLeft=4;spacingRight=4;overflow=hidden;rotatable=0;points=[[0,0.5],[1,0.5]];portConstraint=eastwest;rounded=0;shadow=0;html=0;" parent="PWABPKc5PPacHre3TSY6-99" vertex="1"><mxGeometry y="26" width="240" height="26" as="geometry"/></mxCell><mxCell id="PWABPKc5PPacHre3TSY6-101" value="designerID:Designer.ID" style="text;align=left;verticalAlign=top;spacingLeft=4;spacingRight=4;overflow=hidden;rotatable=0;points=[[0,0.5],[1,0.5]];portConstraint=eastwest;" parent="PWABPKc5PPacHre3TSY6-99" vertex="1"><mxGeometry y="52" width="240" height="28" as="geometry"/></mxCell><mxCell id="PWABPKc5PPacHre3TSY6-102" value="photo:string" style="text;align=left;verticalAlign=top;spacingLeft=4;spacingRight=4;overflow=hidden;rotatable=0;points=[[0,0.5],[1,0.5]];portConstraint=eastwest;" parent="PWABPKc5PPacHre3TSY6-99" vertex="1"><mxGeometry y="80" width="240" height="26" as="geometry"/></mxCell><mxCell id="PWABPKc5PPacHre3TSY6-103" style="edgeStyle=orthogonalEdgeStyle;rounded=0;orthogonalLoop=1;jettySize=auto;html=1;entryX=1;entryY=0.5;entryDx=0;entryDy=0;" parent="WIyWlLk6GJQsqaUBKTNV-1" source="PWABPKc5PPacHre3TSY6-101" target="PWABPKc5PPacHre3TSY6-49" edge="1"><mxGeometry relative="1" as="geometry"/></mxCell><mxCell id="PWABPKc5PPacHre3TSY6-104" style="edgeStyle=orthogonalEdgeStyle;rounded=0;orthogonalLoop=1;jettySize=auto;html=1;entryX=0.006;entryY=0.777;entryDx=0;entryDy=0;entryPerimeter=0;" parent="WIyWlLk6GJQsqaUBKTNV-1" source="PWABPKc5PPacHre3TSY6-97" target="PWABPKc5PPacHre3TSY6-100" edge="1"><mxGeometry relative="1" as="geometry"/></mxCell></root></mxGraphModel></diagram><diagram id="p6mO7LZ-Pf4mdEOUXm3o" name="Page-2"><mxGraphModel dx="804" dy="465" grid="1" gridSize="10" guides="1" tooltips="1" connect="1" arrows="1" fold="1" page="1" pageScale="1" pageWidth="850" pageHeight="1100" math="0" shadow="0"><root><mxCell id="0"/><mxCell id="1" parent="0"/></root></mxGraphModel></diagram></mxfile>